<?xml version="1.0" encoding="UTF-8" standalone="no"?><svg xmlns="http://www.w3.org/2000/svg" xmlns:xlink="http://www.w3.org/1999/xlink" viewBox="0 0 500 500"><path d="M183.893 23.14l-14.176 46.67C92.695 102.244 40.662 173.391 39.263 262.315c-.158 10.051.146 20.428 1.314 30.137l-33.06 33.32L75.503 441.98l46.402-12.291c35.914 27.92 75.097 45.193 124.084 45.964 51.438.809 95.447-15.855 133.138-45.142l45.135 11.939 67.987-116.325-33.531-34.378c.902-7.496 2.133-15.337 2.254-23.053 1.437-91.333-51.573-165.714-130.924-199.119L317.869 22.2l-133.976.94z" fill="#fff"/><path d="M178.02 15.505l-12.297 49.136C88.702 97.075 34.084 172.686 32.685 261.611a219.44 219.44 0 0 0 1.549 29.666l-34.94 33.791 71.98 124.665 45.463-12.997c35.914 27.921 80.852 44.842 129.839 45.612 51.439.81 98.971-16.324 136.662-45.612l45.488 12.997 71.98-124.665-34.94-33.791a219.7 219.7 0 0 0 1.549-22.818c1.437-91.333-53.688-170.413-133.038-203.818L321.98 15.505H178.02zm7.998 11.997h127.964l11.622 46.512c77.143 30.551 131.146 106.393 129.764 194.245-.122 7.799-1.844 17.515-2.81 25.075l-.012-.007 33.765 32.665-63.982 110.819-45.162-12.921.025.021c-35.403 27.055-82.404 47.246-130.415 46.49-45.694-.719-90.197-20.749-123.917-46.522l-.023.017-45.163 12.921-63.982-110.818 33.765-32.666-.012-.031c-1.23-9.641-2.969-21.483-2.812-31.485 1.346-85.582 54.857-158.085 129.764-187.772l11.621-46.543zm51.985 71.979v21.144c-72.552 6.016-130.119 66.239-131.289 140.561-.355 22.621 4.559 44.087 13.597 63.257l-18.295 10.572 11.996 20.794 18.32-10.572c25.448 36.536 67.502 60.729 115.419 61.483 49.54.779 93.583-23.67 119.917-61.483l18.32 10.572 11.996-20.794-18.295-10.547c.004 0-.003-.019 0-.026 8.408-17.849 13.266-37.722 13.596-58.734 1.194-75.846-56.766-138.874-131.288-145.059V99.48h-23.994v.001zm23.994 45.238c61.071 6.106 108.278 58.132 107.295 120.591-.264 16.782-3.99 32.698-10.472 47.086-4.207 8.643-6.192 12.534-12.022 20.795-22.046 30.535-58.16 50.173-98.672 49.536-39.162-.616-73.632-20.042-94.924-49.536-6.097-8.174-8.145-11.909-12.022-20.795-6.987-15.497-10.757-32.74-10.472-50.86.963-61.195 47.835-110.862 107.295-116.792 9.387-.973 13.4-.869 23.994-.025h0z"/><circle cx="250" cy="263.363" r="119.363" fill="#03cf5d"/><path d="M185.596 199.322v128.082h41.826V259l47 68.404h39.982V199.322h-40.982v68.937l-48-68.937h-39.826z" fill="#fff"/></svg>